<svg xmlns="http://www.w3.org/2000/svg" viewBox="0 0 32 32">
  <g stroke="#f59e0b" stroke-width="2" stroke-linecap="round">
    <line x1="10" y1="2" x2="10" y2="4" />
    <line x1="2" y1="10" x2="4" y2="10" />
    <line x1="4.2" y1="4.2" x2="5.6" y2="5.6" />
    <line x1="15.8" y1="4.2" x2="14.4" y2="5.6" />
  </g>
  <circle cx="10" cy="10" r="4.5" fill="#fbbf24" />
  <path
    d="M8 27c-2.8 0-4.4-2.8-2.9-5 .2-.3.5-.5.9-.7-.4-3 2.3-5.2 5.1-4.1.8-3.6 5.6-4.4 7.9-1.5 1.1-.7 2.7-.5 3.7.5 2.5 0 4.3 2.6 3 4.8.3.1.6.3.9.6 1.6 2.2 0 5-2.8 5z"
    fill="#f8fafc"
    stroke="#475569"
    stroke-width="1"
    stroke-linejoin="round"
  />
</svg>
